<svg xmlns="http://www.w3.org/2000/svg" width="860" height="480" viewBox="0 0 860 480">
<rect width="100%" height="100%" fill="white"/>
<text x="16" y="25" font-family="sans-serif" font-size="17">Exploratory whole-carrier AUC — 95% grouped bootstrap intervals</text>
<line x1="340" y1="47" x2="340" y2="445" stroke="#e3e7eb"/>
<text x="340" y="467" text-anchor="middle" font-family="sans-serif" font-size="11">0</text>
<line x1="440.0" y1="47" x2="440.0" y2="445" stroke="#e3e7eb"/>
<text x="440.0" y="467" text-anchor="middle" font-family="sans-serif" font-size="11">0.25</text>
<line x1="540.0" y1="47" x2="540.0" y2="445" stroke="#e3e7eb"/>
<text x="540.0" y="467" text-anchor="middle" font-family="sans-serif" font-size="11">0.5</text>
<line x1="640.0" y1="47" x2="640.0" y2="445" stroke="#e3e7eb"/>
<text x="640.0" y="467" text-anchor="middle" font-family="sans-serif" font-size="11">0.75</text>
<line x1="740" y1="47" x2="740" y2="445" stroke="#e3e7eb"/>
<text x="740" y="467" text-anchor="middle" font-family="sans-serif" font-size="11">1</text>
<line x1="540.0" y1="47" x2="540.0" y2="445" stroke="#777" stroke-dasharray="4,4"/>
<text x="16" y="69" font-family="sans-serif" font-size="12">image-to-text / fixed / surprisal</text>
<line x1="740.0" x2="740.0" y1="65" y2="65" stroke="#167339" stroke-width="2"/>
<circle cx="740.0" cy="65" r="4" fill="#167339"/>
<text x="752" y="69" font-family="sans-serif" font-size="12">1.000</text>
<text x="16" y="99" font-family="sans-serif" font-size="12">image-to-text / fixed / log2-rank</text>
<line x1="740.0" x2="740.0" y1="95" y2="95" stroke="#167339" stroke-width="2"/>
<circle cx="740.0" cy="95" r="4" fill="#167339"/>
<text x="752" y="99" font-family="sans-serif" font-size="12">1.000</text>
<text x="16" y="129" font-family="sans-serif" font-size="12">image-to-text / gated / surprisal</text>
<line x1="740.0" x2="740.0" y1="125" y2="125" stroke="#0969da" stroke-width="2"/>
<circle cx="740.0" cy="125" r="4" fill="#0969da"/>
<text x="752" y="129" font-family="sans-serif" font-size="12">1.000</text>
<text x="16" y="159" font-family="sans-serif" font-size="12">image-to-text / gated / log2-rank</text>
<line x1="740.0" x2="740.0" y1="155" y2="155" stroke="#0969da" stroke-width="2"/>
<circle cx="740.0" cy="155" r="4" fill="#0969da"/>
<text x="752" y="159" font-family="sans-serif" font-size="12">1.000</text>
<text x="16" y="189" font-family="sans-serif" font-size="12">image-to-text / arithmetic / surprisal</text>
<line x1="444.0" x2="541.0" y1="185" y2="185" stroke="#8250df" stroke-width="2"/>
<circle cx="492.0" cy="185" r="4" fill="#8250df"/>
<text x="752" y="189" font-family="sans-serif" font-size="12">0.380</text>
<text x="16" y="219" font-family="sans-serif" font-size="12">image-to-text / arithmetic / log2-rank</text>
<line x1="437.0" x2="532.0249999999999" y1="215" y2="215" stroke="#8250df" stroke-width="2"/>
<circle cx="484.0" cy="215" r="4" fill="#8250df"/>
<text x="752" y="219" font-family="sans-serif" font-size="12">0.360</text>
<text x="16" y="249" font-family="sans-serif" font-size="12">text-to-image / fixed / surprisal</text>
<line x1="637.0" x2="734.0" y1="245" y2="245" stroke="#167339" stroke-width="2"/>
<circle cx="694.0" cy="245" r="4" fill="#167339"/>
<text x="752" y="249" font-family="sans-serif" font-size="12">0.885</text>
<text x="16" y="279" font-family="sans-serif" font-size="12">text-to-image / fixed / log2-rank</text>
<line x1="613.0" x2="726.0" y1="275" y2="275" stroke="#167339" stroke-width="2"/>
<circle cx="676.0" cy="275" r="4" fill="#167339"/>
<text x="752" y="279" font-family="sans-serif" font-size="12">0.840</text>
<text x="16" y="309" font-family="sans-serif" font-size="12">text-to-image / gated / surprisal</text>
<line x1="620.0" x2="715.0" y1="305" y2="305" stroke="#0969da" stroke-width="2"/>
<circle cx="672.0" cy="305" r="4" fill="#0969da"/>
<text x="752" y="309" font-family="sans-serif" font-size="12">0.830</text>
<text x="16" y="339" font-family="sans-serif" font-size="12">text-to-image / gated / log2-rank</text>
<line x1="591.975" x2="699.0" y1="335" y2="335" stroke="#0969da" stroke-width="2"/>
<circle cx="648.0" cy="335" r="4" fill="#0969da"/>
<text x="752" y="339" font-family="sans-serif" font-size="12">0.770</text>
<text x="16" y="369" font-family="sans-serif" font-size="12">text-to-image / arithmetic / surprisal</text>
<line x1="490.0" x2="637.0249999999999" y1="365" y2="365" stroke="#8250df" stroke-width="2"/>
<circle cx="563.0" cy="365" r="4" fill="#8250df"/>
<text x="752" y="369" font-family="sans-serif" font-size="12">0.557</text>
<text x="16" y="399" font-family="sans-serif" font-size="12">text-to-image / arithmetic / log2-rank</text>
<line x1="502.0" x2="643.0249999999999" y1="395" y2="395" stroke="#8250df" stroke-width="2"/>
<circle cx="570.0" cy="395" r="4" fill="#8250df"/>
<text x="752" y="399" font-family="sans-serif" font-size="12">0.575</text>
</svg>
